<?xml version="1.0" encoding="utf-8"?>
<!-- Generator: Adobe Illustrator 20.1.0, SVG Export Plug-In . SVG Version: 6.00 Build 0)  -->
<svg version="1.1" id="Layer_1" xmlns="http://www.w3.org/2000/svg" xmlns:xlink="http://www.w3.org/1999/xlink" x="0px" y="0px"
	 viewBox="0 0 2286 816.8" style="enable-background:new 0 0 2286 816.8;" xml:space="preserve">
<style type="text/css">
	.st0{fill:#3D7DB7;}
	.st1{fill:#79C753;}
</style>
<title>Artboard 1</title>
<g id="Layer_2">
	<polygon class="st0" points="0,9.6 0,277.6 629.9,9.6 	"/>
	<polygon class="st1" points="0,279.2 0,547.1 629.9,279.2 	"/>
	<polygon points="0,547.1 0,815.1 629.9,547.1 	"/>
	<path d="M1017.7,8.2H674.2v315.3h605c0,0,192.3,2.2,188-146.9S1361.3,8.2,1272.7,8.2h-218.3v215.3h123.2V79.3h67
		c0,0,116.7-6.3,114.5,86.5s-105.9,88.4-105.9,88.4H793v-60.4h213.9v-62.7H795.2v-54h222.6L1017.7,8.2z"/>
	<polygon points="2286,323.5 1933.8,323.5 1933.8,8.2 2286,8.2 2286,77.2 2054.8,77.2 2054.8,131.2 2266.6,131.2 2266.6,193.9 
		2052.7,193.9 2052.7,254.3 2286,254.3 	"/>
	<path d="M1905.8,323.5v-175h-203.1V209h101.5c0,0,6.5,54-88.6,56.2s-127.5-45.2-127.5-99.3S1627,64.3,1698.3,64.3
		s86.5,19,114.5,51.6l92.9-43c0,0-45.4-72.9-207.4-72.9s-190.1,70.7-203.1,85.8s-56.2,142.6,34.6,200.9s198.8,51.9,278.7,17.3v19.4
		L1905.8,323.5L1905.8,323.5z"/>
	<path d="M674.2,684.3V459.6h103.7v54h116.7c0,0,49.7-3.8,51.9-44c2.2-40.2-49.7-38.1-49.7-38.1H674.2v-61.3c0,0,199-1.3,265.3,0
		c39.1,0.8,114.8,24.9,116.7,99.3c2,78.9-84.7,90.2-84.7,90.2L1107,684.2H977.1L855.7,573h-77.2v111.3H674.2z"/>
	<path d="M1283.7,355.8c-125.9,0-227.9,76.7-227.9,171.2s102,171.2,227.9,171.2s227.9-76.6,227.9-171.2S1409.5,355.8,1283.7,355.8z
		 M1283.7,624.3c-61.8,0-111.9-43.5-111.9-97.3c0-53.8,50.1-97.3,111.9-97.3s111.9,43.5,111.9,97.3
		C1395.6,580.8,1345.5,624.3,1283.7,624.3L1283.7,624.3z"/>
	<path d="M1821.4,577.2c-19.6,28.2-55.2,47.1-95.9,47.1c-61.8,0-111.9-43.5-111.9-97.3c0-53.8,50.1-97.3,111.9-97.3
		c37.5,0,70.7,16,91,40.6l101.2-35.3c-40.5-47.6-111.4-79.2-192.2-79.2c-125.8,0-227.9,76.7-227.9,171.2s102,171.2,227.9,171.2
		c80.4,0,151-31.3,191.6-78.5L1821.4,577.2z"/>
	<polygon points="1895.4,369.7 2005.3,369.7 2005.3,491.8 2156.6,369.7 2286,369.7 2134.7,489.6 2286,683.6 2166.5,685.6 
		2055,546.1 2004.4,593.1 2004,685.3 1895.4,685.3 	"/>
	<path d="M675.3,731.5h34.1c11.6,0,20.5,4.2,26.9,12.5c5.7,7.5,8.5,17.1,8.5,28.8c0.1,8.4-1.6,16.8-5,24.6
		c-5.9,12.9-16.1,19.4-30.5,19.4h-34V731.5z M707.1,806.9c3.2,0.1,6.4-0.3,9.4-1.2c4.5-1.6,8.3-4.7,10.8-8.7
		c2.5-4.1,4.1-8.6,4.8-13.2c0.5-2.9,0.8-5.9,0.8-8.9c0-10.6-2.1-18.8-6.2-24.6c-4.1-5.8-10.7-8.8-19.8-8.8h-20V807L707.1,806.9z"/>
	<path d="M834.2,731.5h61.9v10.4h-50.6v25.9h46.8v9.9h-46.8v28.9H897v10.2h-62.8L834.2,731.5L834.2,731.5z"/>
	<path d="M991.7,731.5l24.5,72.6l24.2-72.6h12.9l-31.1,85.3H1010l-31.1-85.3H991.7z"/>
	<path d="M1137.9,731.5h61.9v10.4h-50.6v25.9h46.8v9.9h-46.8v28.9h51.5v10.2h-62.8V731.5z"/>
	<path d="M1288.6,731.5h11.6v75.1h42.8v10.2h-54.3L1288.6,731.5z"/>
	<path d="M1497.5,743.7c5.7,7.5,8.5,17.2,8.5,29c0,12.7-3.2,23.3-9.7,31.8c-7.6,9.9-18.4,14.9-32.4,14.9c-13.1,0-23.4-4.3-30.9-13
		c-6.7-8.4-10-18.9-10-31.7c0-11.5,2.9-21.4,8.6-29.6c7.3-10.5,18.2-15.8,32.6-15.8C1479.1,729.2,1490.2,734,1497.5,743.7z
		 M1487.3,798c4.6-7.6,7-16.3,6.8-25.2c0-10-2.6-18.1-7.9-24.2c-5.2-6.2-12.4-9.2-21.5-9.2c-8.8,0-16,3-21.6,9.1s-8.4,15-8.4,26.8
		c0,9.5,2.4,17.4,7.2,23.9s12.5,9.7,23.2,9.7C1475.4,809,1482.7,805.3,1487.3,798L1487.3,798z"/>
	<path d="M1593.3,731.5h38.2c7.5,0,13.6,2.1,18.3,6.4c4.6,4.3,7,10.3,7,18c0.1,6.4-2.1,12.5-6.2,17.4s-10.5,7.4-19,7.4H1605v36
		h-11.6v-85.2H1593.3z M1638.1,743.2c-2.5-1.2-6-1.8-10.4-1.8h-22.8V771h22.8c5.1,0,9.3-1.1,12.5-3.3c3.2-2.2,4.8-6.1,4.8-11.7
		C1645,749.7,1642.7,745.5,1638.1,743.2L1638.1,743.2z"/>
	<path d="M1743.7,731.5h16.6l24.5,72.1l24.3-72.1h16.4v85.3h-11v-50.3c0-1.7,0-4.6,0.1-8.7c0.1-4,0.1-8.3,0.1-12.9l-24.3,71.9H1779
		l-24.6-71.9v2.6c0,2.1,0.1,5.3,0.2,9.6c0.1,4.3,0.2,7.4,0.2,9.4v50.3h-11L1743.7,731.5z"/>
	<path d="M1916.7,731.5h61.9v10.4H1928v25.9h46.8v9.9H1928v28.9h51.5v10.2h-62.8L1916.7,731.5z"/>
	<path d="M2067.4,731.5h13.6l42.5,68.9v-68.9h11v85.3h-13l-43.2-68.8v68.8h-11L2067.4,731.5z"/>
	<path d="M2287.8,731.5v10.1h-28.7v75.1h-11.7v-75.1h-28.7v-10.2L2287.8,731.5z"/>
</g>
</svg>
