<svg id="Layer_1" data-name="Layer 1" xmlns="http://www.w3.org/2000/svg" viewBox="0 0 3346.85 342.4"><title>nav_logo</title><g id="Layer_2" data-name="Layer 2"><path d="M343.5,14.25H0v315.3H605s192.3,2.2,188-146.9S687.1,14.25,598.5,14.25H380.2v215.3H503.4V85.35h67s116.7-6.3,114.5,86.5S579,260.25,579,260.25H118.8v-60.4H332.7v-62.7H121v-54H343.6Z"/><polygon points="1611.8 329.55 1259.6 329.55 1259.6 14.25 1611.8 14.25 1611.8 83.25 1380.6 83.25 1380.6 137.25 1592.4 137.25 1592.4 199.95 1378.5 199.95 1378.5 260.35 1611.8 260.35 1611.8 329.55"/><path d="M1231.6,329.55v-175H1028.5V215H1130s6.5,54-88.6,56.2S913.9,226,913.9,171.95s38.9-101.6,110.2-101.6,86.5,19,114.5,51.6l92.9-43S1186.1,6,1024.1,6,834,76.75,821,91.85s-56.2,142.6,34.6,200.9,198.8,51.9,278.7,17.3v19.4l97.3.1Z"/><path d="M1735,328.5V103.8h103.7v54h116.7s49.7-3.8,51.9-44-49.7-38.1-49.7-38.1H1735V14.4s199-1.3,265.3,0c39.1.8,114.8,24.9,116.7,99.3,2,78.9-84.7,90.2-84.7,90.2l135.5,124.5h-129.9l-121.4-111.2h-77.2V328.5Z"/><path d="M2344.55,0c-125.9,0-227.9,76.7-227.9,171.2s102,171.2,227.9,171.2,227.9-76.6,227.9-171.2S2470.35,0,2344.55,0Zm0,268.5c-61.8,0-111.9-43.5-111.9-97.3s50.1-97.3,111.9-97.3,111.9,43.5,111.9,97.3-50.1,97.3-111.9,97.3Z"/><path d="M2882.25,221.4c-19.6,28.2-55.2,47.1-95.9,47.1-61.8,0-111.9-43.5-111.9-97.3s50.1-97.3,111.9-97.3c37.5,0,70.7,16,91,40.6l101.2-35.3C2938,31.6,2867.15,0,2786.35,0c-125.8,0-227.9,76.7-227.9,171.2s102,171.2,227.9,171.2c80.4,0,151-31.3,191.6-78.5Z"/><polygon points="2956.25 13.9 3066.15 13.9 3066.15 136 3217.45 13.9 3346.85 13.9 3195.55 133.8 3346.85 327.8 3227.35 329.8 3115.85 190.3 3065.25 237.3 3064.85 329.5 2956.25 329.5 2956.25 13.9"/></g></svg>